<svg width="173" height="146" viewBox="0 0 173 146" fill="none" xmlns="http://www.w3.org/2000/svg">
<path d="M93.6409 40.0872C95.9523 26.2172 99.039 13.1042 105.035 12.1758C110.064 11.3972 114.649 11.9402 118.602 13.3972C125.162 19.7429 130.21 28.25 132.617 38.7175C131.247 42.5766 128.328 46.105 123.571 48.6805C113.375 54.201 104.346 62.6737 97.6929 68.3541C100.395 65.153 103.907 61.9365 107.506 58.6405C120.126 47.0813 133.817 34.5422 117.393 18.2497C103.851 4.81691 99.1311 21.0329 93.6409 40.0872Z" fill="#F13E93"/>
<path fill-rule="evenodd" clip-rule="evenodd" d="M61.7857 139.915C43.25 139.915 43.25 127.749 43.25 103.415C43.25 88.5973 36.2 80.9955 29.5093 73.781C26.6661 70.7151 23.8866 67.718 21.7419 64.2678C31.0955 62.3809 39.9238 65.5986 39.9238 65.5986C38.2716 42.1143 44.0019 25.3575 53.3473 14.6601C59.8521 21.3204 60.5818 37.9852 61.226 52.6965C61.8476 66.8925 62.3896 79.2695 67.9642 79.0824C82.5459 78.593 88.4235 58.1939 93.5953 40.2441L93.6409 40.0872C99.1311 21.0329 103.851 4.81691 117.393 18.2497C133.817 34.5422 120.126 47.0813 107.506 58.6405C103.907 61.9365 100.395 65.153 97.6929 68.3541C94.6832 71.92 92.6785 75.466 92.6785 79.0829C92.6785 90.6118 104.371 88.1875 118.469 85.2644C139.872 80.8265 166.821 75.2388 166.821 115.582C166.821 120.813 146.266 115.924 123.811 110.584C94.0355 103.503 60.9196 95.6269 67.9642 109.499C70.67 114.827 73.3758 119.28 75.6275 122.986C83.6593 136.205 85.9141 139.915 61.7857 139.915Z" fill="#F13E93"/>
<path d="M107.983 5.63837C92.6023 -2.62632 73.4757 -2.03948 59.3714 8.95367C67.253 17.5104 68.1536 37.7809 68.8049 52.4428C69.3621 64.9842 69.737 73.4223 74.1427 66.9156C81.9831 55.3364 84.849 41.9205 87.2773 30.5524C90.7268 14.4039 93.2936 2.38777 107.983 5.63837Z" fill="#F9D0CD"/>
<path fill-rule="evenodd" clip-rule="evenodd" d="M38.2786 127.067C40.1043 137.161 44.6903 144.036 56.2117 145.639L53.2298 145.64C52.7731 145.702 0 152.689 0 101.976C0.000565665 80.0894 7.3741 70.2961 15.7832 66.2436C17.6704 69.4849 20.4499 72.3854 23.3819 75.4449C25.3515 77.5002 27.3899 79.6274 29.2728 81.9781C27.6262 81.8552 26.1109 81.9513 24.9194 82.277C23.8085 82.5812 22.876 83.0484 21.8784 84.5939C20.6258 86.5345 18.5361 91.4127 18.5357 101.976C18.5357 111.447 20.9452 116.485 23.0852 119.264C25.3217 122.168 28.5361 124.247 32.6909 125.668C34.5186 126.292 36.4119 126.746 38.2786 127.067Z" fill="#F891BB"/>
<path fill-rule="evenodd" clip-rule="evenodd" d="M129.451 127.616L129.895 127.653C130.624 127.71 131.783 127.774 133.213 127.736C136.199 127.658 139.706 127.182 142.879 125.942C144.076 125.474 145.197 124.913 146.232 124.227C155.523 125.936 163.497 126.797 168.268 125.846C156.42 150.324 126.419 145.641 126.419 145.641L70.0798 145.64C83.8358 144.382 95.471 139.568 89.5375 127.392H127.879L129.219 127.594L129.451 127.616Z" fill="#F891BB"/>
<path fill-rule="evenodd" clip-rule="evenodd" d="M114.582 63.8771C116.783 62.2739 119.202 60.6139 121.692 58.9055C125.861 56.0445 130.229 53.0472 134.106 49.9511C134.313 54.8437 134 60.0635 133.081 65.5963C133.541 65.4304 172.999 51.3433 173 101.977C173 105.078 172.827 107.963 172.503 110.648C168.124 65.3031 135.834 72.8911 117.1 77.2937C115.328 77.7099 113.655 78.103 112.162 78.4141C105.211 79.8623 101.655 79.656 105.035 72.9986C106.433 70.2462 110.045 67.182 114.582 63.8771Z" fill="#F9D0CD"/>
</svg>
